<svg width="50px" height="50px" viewBox="0 0 50 50" version="1.1" xmlns="http://www.w3.org/2000/svg" xmlns:xlink="http://www.w3.org/1999/xlink">
    <!-- Generator: Sketch 49 (51002) - http://www.bohemiancoding.com/sketch -->
    <desc>Created with Sketch.</desc>
    <defs></defs>
    <g id="Landing-Page" stroke="none" stroke-width="1" fill="none" fill-rule="evenodd" stroke-linecap="round" stroke-linejoin="round">
        <g id="LP---Email-Forwarding--Mobile" transform="translate(-45.000000, -841.000000)" stroke-width="0.981">
            <g id="Group-3" transform="translate(16.000000, 812.000000)">
                <g id="Page-1" transform="translate(30.000000, 30.000000)">
                    <path d="M14.5748426,15.177966 L14.5748426,12.8451515 C14.5748426,9.65065153 17.1632848,7.05882353 20.3560918,7.05882353 L32.1183524,7.05882353 L32.1183524,15.1965879 C33.1239343,15.3912712 33.8823529,16.281736 33.8823529,17.3414906 L33.8823529,17.952627 C33.8823529,19.0259249 33.1171627,19.9197754 32.0963447,20.1043014 C31.7713082,24.6497345 27.979215,28.2352941 23.3457511,28.2352941 C18.7207516,28.2352941 14.9320442,24.6497345 14.5985432,20.1195375 C13.530324,19.977334 12.7058824,19.056397 12.7058824,17.952627 L12.7058824,17.3414906 C12.7058824,16.2394135 13.5117022,15.328634 14.5748426,15.177966 Z" id="Stroke-1" stroke="#000000"></path>
                    <path d="M39.5294118,40.9411765 L39.5294118,36.6100711 C39.5294118,34.2224104 37.3951231,32.2773325 34.7615856,32.2773325 L28.9827805,32.2773325 L26.8235294,28.2352941" id="Stroke-3" stroke="#000000"></path>
                    <path d="M18.3529412,28.2352941 L16.3675766,32.2480192 L11.6410646,32.2480192 C9.21632953,32.2480192 7.05882353,34.2673469 7.05882353,36.6415966 L7.05882353,40.9411765" id="Stroke-5" stroke="#000000"></path>
                    <path d="M24,0 C10.7453311,0 0,10.7457112 0,24.0008489 C0,37.2559867 10.7453311,48 24,48 C37.2546689,48 48,37.2559867 48,24.0008489" id="Stroke-7" stroke="#040100"></path>
                    <polygon id="Stroke-9" stroke="#040100" points="41.6470588 8.19413235 38.5931838 9.88235294 39.1764706 6.30657118 36.7058824 3.77512233 40.1201213 3.25295588 41.6470588 0 43.1739963 3.25295588 46.5882353 3.77512233 44.1176471 6.30657118 44.7009338 9.88235294"></polygon>
                </g>
            </g>
        </g>
    </g>
</svg>
