<svg width="36px" height="36px" viewBox="0 0 36 36" version="1.1" xmlns="http://www.w3.org/2000/svg" xmlns:xlink="http://www.w3.org/1999/xlink">
    <!-- Generator: Sketch 49 (51002) - http://www.bohemiancoding.com/sketch -->
    <desc>Created with Sketch.</desc>
    <defs></defs>
    <g id="Landing-Page" stroke="none" stroke-width="1" fill="none" fill-rule="evenodd" stroke-linecap="round" stroke-linejoin="round">
        <g id="LP---Email-Forwarding---Desktop" transform="translate(-568.000000, -1419.000000)" stroke-width="0.981">
            <g id="Group-4-Copy" transform="translate(525.000000, 1373.000000)">
                <g id="Page-1" transform="translate(44.000000, 47.000000)">
                    <path d="M10.3238468,10.7510592 L10.3238468,9.09864897 C10.3238468,6.83587817 12.1573267,5 14.4188984,5 L22.7504996,5 L22.7504996,10.7642497 C23.4627868,10.9021505 24,11.5328963 24,12.2835558 L24,12.7164442 C24,13.4766968 23.4579902,14.1098409 22.7349109,14.2405468 C22.5046766,17.4602286 19.8186106,20 16.5365737,20 C13.2605324,20 10.5768647,17.4602286 10.3406347,14.251339 C9.58397953,14.1506116 9,13.4982812 9,12.7164442 L9,12.2835558 C9,11.5029179 9.57078903,10.8577824 10.3238468,10.7510592 Z" id="Stroke-1" stroke="#000000"></path>
                    <path d="M28,29 L28,25.9321337 C28,24.240874 26.4882122,22.8631105 24.6227898,22.8631105 L20.5294695,22.8631105 L19,20" id="Stroke-3" stroke="#000000"></path>
                    <path d="M13,20 L11.5937001,22.8423469 L8.2457541,22.8423469 C6.52823342,22.8423469 5,24.2727041 5,25.9544643 L5,29" id="Stroke-5" stroke="#000000"></path>
                    <path d="M17,0 C7.61127617,0 0,7.6115454 0,17.0006013 C0,26.3896572 7.61127617,34 17,34 C26.3887238,34 34,26.3896572 34,17.0006013" id="Stroke-7" stroke="#040100"></path>
                    <polygon id="Stroke-9" stroke="#040100" points="29.5 5.80417708 27.3368385 7 27.75 4.46715459 26 2.67404498 28.4184193 2.30417708 29.5 0 30.5815807 2.30417708 33 2.67404498 31.25 4.46715459 31.6631615 7"></polygon>
                </g>
            </g>
        </g>
    </g>
</svg>
