<svg width="16px" height="12px" viewBox="0 0 16 12" version="1.1" xmlns="http://www.w3.org/2000/svg" xmlns:xlink="http://www.w3.org/1999/xlink">
    <!-- Generator: Sketch 49 (51002) - http://www.bohemiancoding.com/sketch -->
    <desc>Created with Sketch.</desc>
    <defs>
        <path d="M5,6 L19,6 C19.5522847,6 20,6.44771525 20,7 C20,7.55228475 19.5522847,8 19,8 L5,8 C4.44771525,8 4,7.55228475 4,7 C4,6.44771525 4.44771525,6 5,6 Z M5,11 L19,11 C19.5522847,11 20,11.4477153 20,12 C20,12.5522847 19.5522847,13 19,13 L5,13 C4.44771525,13 4,12.5522847 4,12 C4,11.4477153 4.44771525,11 5,11 Z M5,16 L19,16 C19.5522847,16 20,16.4477153 20,17 C20,17.5522847 19.5522847,18 19,18 L5,18 C4.44771525,18 4,17.5522847 4,17 C4,16.4477153 4.44771525,16 5,16 Z" id="path-1"></path>
    </defs>
    <g id="Landing-Page" stroke="none" stroke-width="1" fill="none" fill-rule="evenodd">
        <g id="LP---Email-Forwarding--Mobile" transform="translate(-343.000000, -39.000000)">
            <g id="global-nav-mobile" transform="translate(0.000000, 20.000000)">
                <g id="Icon/Menu" transform="translate(339.000000, 13.000000)">
                    <rect id="Bounding-Box" x="0" y="0" width="24" height="24"></rect>
                    <mask id="mask-2" fill="white">
                        <use xlink:href="#path-1"></use>
                    </mask>
                    <g id="Combined-Shape"></g>
                    <g id="Mixin/Fill/Black" mask="url(#mask-2)" fill="#191E26" fill-rule="evenodd">
                        <rect id="Rectangle" x="0" y="0" width="24" height="24"></rect>
                    </g>
                </g>
            </g>
        </g>
    </g>
</svg>
