
<svg width="24px" height="24px" viewBox="0 0 24 24" version="1.1" xmlns="http://www.w3.org/2000/svg" xmlns:xlink="http://www.w3.org/1999/xlink">
    <!-- Generator: Sketch 49 (51002) - http://www.bohemiancoding.com/sketch -->
    <desc>Created with Sketch.</desc>
    <defs></defs>
    <g id="Symbols" stroke="none" stroke-width="1" fill="none" fill-rule="evenodd">
        <g id="logo/full-color">
            <path d="M16.8435789,12.0549474 C16.8435789,14.6709474 14.7227368,16.7917895 12.1067368,16.7917895 C9.49010526,16.7917895 7.36989474,14.6709474 7.36989474,12.0549474 C7.36989474,9.43894737 9.49010526,7.31810526 12.1067368,7.31810526 C14.7227368,7.31810526 16.8435789,9.43894737 16.8435789,12.0549474 Z M20.2263158,10.2656842 C19.4052632,6.53747368 16.0774737,3.73894737 12.1067368,3.73894737 C10.3471579,3.73894737 8.71515789,4.28968421 7.36989474,5.22568421 L7.36989474,1.14694737 C8.82189474,0.513473684 10.4235789,0.160421053 12.1067368,0.160421053 C18.0574737,0.160421053 23.0008421,4.55242105 23.8661053,10.2656842 L20.2263158,10.2656842 Z" id="Combined-Shape" fill="#4DAAA7"></path>
            <path d="M12.1067368,20.3709474 C9.94025883,20.3709474 7.96477816,19.5383117 6.48335239,18.1762976 C4.82896853,16.6552669 3.79073684,14.4740309 3.79073684,12.0549474 L3.79073684,3.56147368 C1.58463158,5.72147368 0.211578947,8.73031579 0.211578947,12.0549474 C0.211578947,18.6138947 5.54778947,23.9501053 12.1067368,23.9501053 C13.1515745,23.9501053 14.1653562,23.8146858 15.1314603,23.5604756 C17.4076138,22.9615531 19.4191182,21.7032468 20.9485985,20.0030215 C22.4672661,18.3148158 23.5107009,16.1909172 23.8661053,13.8442105 L20.2263158,13.8442105 C19.4052632,17.5724211 16.0774737,20.3709474 12.1067368,20.3709474 Z" id="Fill-3" fill="#31708F"></path>
        </g>
    </g>
</svg>
