<svg width="240px" height="24px" viewBox="0 0 240 24" version="1.1" xmlns="http://www.w3.org/2000/svg" xmlns:xlink="http://www.w3.org/1999/xlink">
    <!-- Generator: Sketch 49 (51002) - http://www.bohemiancoding.com/sketch -->
    <desc>Created with Sketch.</desc>
    <defs></defs>
    <g id="Landing-Page" stroke="none" stroke-width="1" fill="none" fill-rule="evenodd">
        <g id="LP---Email-Forwarding--Mobile" transform="translate(-16.000000, -34.000000)">
            <g id="global-nav-mobile" transform="translate(0.000000, 20.000000)">
                <g id="logo/full-color" transform="translate(16.000000, 14.000000)">
                    <path d="M16.8435789,12.0549474 C16.8435789,14.6709474 14.7227368,16.7917895 12.1067368,16.7917895 C9.49010526,16.7917895 7.36989474,14.6709474 7.36989474,12.0549474 C7.36989474,9.43894737 9.49010526,7.31810526 12.1067368,7.31810526 C14.7227368,7.31810526 16.8435789,9.43894737 16.8435789,12.0549474 Z M20.2263158,10.2656842 C19.4052632,6.53747368 16.0774737,3.73894737 12.1067368,3.73894737 C10.3471579,3.73894737 8.71515789,4.28968421 7.36989474,5.22568421 L7.36989474,1.14694737 C8.82189474,0.513473684 10.4235789,0.160421053 12.1067368,0.160421053 C18.0574737,0.160421053 23.0008421,4.55242105 23.8661053,10.2656842 L20.2263158,10.2656842 Z" id="Combined-Shape" fill="#4DAAA7"></path>
                    <path d="M20.2263158,13.8442105 C19.4052632,17.5724211 16.0774737,20.3709474 12.1067368,20.3709474 C7.52084211,20.3709474 3.79073684,16.6402105 3.79073684,12.0549474 L3.79073684,3.56147368 C1.58463158,5.72147368 0.211578947,8.73031579 0.211578947,12.0549474 C0.211578947,18.6138947 5.54778947,23.9501053 12.1067368,23.9501053 C18.0574737,23.9501053 23.0008421,19.5574737 23.8661053,13.8442105 L20.2263158,13.8442105" id="Fill-3" fill="#31708F"></path>
                    <path d="M31.6717895,18.4231579 L31.6717895,6.20336842 L38.1018947,6.20336842 C40.4286316,6.20336842 41.6191579,7.68757895 41.6191579,9.31768421 C41.6191579,10.8385263 40.6667368,11.8831579 39.5128421,12.1206316 C40.8315789,12.3227368 41.8578947,13.5865263 41.8578947,15.1067368 C41.8578947,16.9578947 40.6484211,18.4231579 38.3033684,18.4231579 L31.6717895,18.4231579 L31.6717895,18.4231579 Z M38.9627368,9.77557895 C38.9627368,9.02463158 38.4132632,8.49347368 37.5341053,8.49347368 L34.2732632,8.49347368 L34.2732632,11.0583158 L37.5341053,11.0583158 C38.4132632,11.0583158 38.9627368,10.5637895 38.9627368,9.77557895 L38.9627368,9.77557895 Z M39.2014737,14.7404211 C39.2014737,15.6195789 38.6153684,16.1330526 37.644,16.1330526 L34.2732632,16.1330526 L34.2732632,13.3484211 L37.644,13.3484211 C38.652,13.3484211 39.2014737,13.9711579 39.2014737,14.7404211 Z M44.4562105,13.5315789 L44.4562105,6.20336842 L47.0936842,6.20336842 L47.0936842,13.4583158 C47.0936842,15.1623158 48.0833684,16.3345263 49.9705263,16.3345263 C51.8570526,16.3345263 52.8284211,15.1623158 52.8284211,13.4583158 L52.8284211,6.20336842 L55.4848421,6.20336842 L55.4848421,13.5315789 C55.4848421,16.5543158 53.6892632,18.6429474 49.9705263,18.6429474 C46.2511579,18.6429474 44.4562105,16.5543158 44.4562105,13.5315789 Z M59.2736842,6.20336842 L61.8751579,6.20336842 L61.8751579,18.4231579 L59.2736842,18.4231579 L59.2736842,6.20336842 Z M65.5553684,18.4231579 L65.5553684,6.20336842 L68.1751579,6.20336842 L68.1751579,16.1330526 L73.3414737,16.1330526 L73.3414737,18.4231579 L65.5553684,18.4231579 Z M75.8305263,18.4231579 L75.8305263,6.20336842 L80.6488421,6.20336842 C84.4781053,6.20336842 87.1338947,8.64 87.1338947,12.3037895 C87.1338947,16.0048421 84.4781053,18.4231579 80.6671579,18.4231579 L75.8305263,18.4231579 Z M84.4781053,12.3037895 C84.4781053,10.1608421 83.1587368,8.49347368 80.6671579,8.49347368 L78.4326316,8.49347368 L78.4326316,16.1330526 L80.6488421,16.1330526 C83.0671579,16.1330526 84.4781053,14.3924211 84.4781053,12.3037895 Z M89.9886316,6.20336842 L92.5901053,6.20336842 L92.5901053,18.4231579 L89.9886316,18.4231579 L89.9886316,6.20336842 Z M104.808,18.4231579 L98.9823158,10.4538947 L98.9823158,18.4231579 L96.3808421,18.4231579 L96.3808421,6.20336842 L99.0549474,6.20336842 L104.716421,13.8795789 L104.716421,6.20336842 L107.317263,6.20336842 L107.317263,18.4231579 L104.808,18.4231579 Z M109.787368,12.3227368 C109.787368,8.45684211 112.718526,6.00189474 116.309053,6.00189474 C118.837263,6.00189474 120.431368,7.284 121.347789,8.73157895 L119.203579,9.90442105 C118.636421,9.04294737 117.591789,8.31031579 116.309053,8.31031579 C114.073895,8.31031579 112.462105,10.0136842 112.462105,12.3227368 C112.462105,14.6305263 114.073895,16.3345263 116.309053,16.3345263 C117.390316,16.3345263 118.397684,15.8576842 118.892211,15.4004211 L118.892211,13.9338947 L115.668632,13.9338947 L115.668632,11.6627368 L121.493684,11.6627368 L121.493684,16.3528421 C120.248211,17.7454737 118.508211,18.6429474 116.309053,18.6429474 C112.718526,18.6429474 109.787368,16.1696842 109.787368,12.3227368 Z M124.842947,12.3227368 C124.842947,8.56673684 127.609263,6.00189474 131.126526,6.00189474 C133.288421,6.00189474 134.790947,7.02757895 135.761684,8.42021053 L134.497263,9.13452632 C133.801895,8.09052632 132.518526,7.35726316 131.126526,7.35726316 C128.451789,7.35726316 126.418105,9.39094737 126.418105,12.3227368 C126.418105,15.2172632 128.451789,17.2869474 131.126526,17.2869474 C132.518526,17.2869474 133.801895,16.536 134.497263,15.5103158 L135.78,16.2063158 C134.753684,17.6172632 133.288421,18.6429474 131.126526,18.6429474 C127.609263,18.6429474 124.842947,16.0781053 124.842947,12.3227368 Z M137.828842,12.3227368 C137.828842,8.71326316 140.283158,6.00189474 143.892632,6.00189474 C147.501474,6.00189474 149.974737,8.71326316 149.974737,12.3227368 C149.974737,15.9315789 147.501474,18.6429474 143.892632,18.6429474 C140.283158,18.6429474 137.828842,15.9315789 137.828842,12.3227368 Z M148.399579,12.3227368 C148.399579,9.46421053 146.621684,7.35726316 143.892632,7.35726316 C141.144632,7.35726316 139.404,9.46421053 139.404,12.3227368 C139.404,15.1623158 141.144632,17.2869474 143.892632,17.2869474 C146.621684,17.2869474 148.399579,15.1623158 148.399579,12.3227368 Z M161.769474,18.4231579 L154.642737,8.67663158 L154.642737,18.4231579 L153.121895,18.4231579 L153.121895,6.20336842 L154.679368,6.20336842 L161.714526,15.7484211 L161.714526,6.20336842 L163.234737,6.20336842 L163.234737,18.4231579 L161.769474,18.4231579 Z M175.927579,18.4231579 L168.800842,8.67663158 L168.800842,18.4231579 L167.28,18.4231579 L167.28,6.20336842 L168.837474,6.20336842 L175.872632,15.7484211 L175.872632,6.20336842 L177.392842,6.20336842 L177.392842,18.4231579 L175.927579,18.4231579 Z M181.621263,18.4231579 L181.621263,6.20336842 L189.627158,6.20336842 L189.627158,7.55936842 L183.142105,7.55936842 L183.142105,11.4978947 L189.498947,11.4978947 L189.498947,12.8538947 L183.142105,12.8538947 L183.142105,17.0671579 L189.627158,17.0671579 L189.627158,18.4231579 L181.621263,18.4231579 Z M192.811579,12.3227368 C192.811579,8.56673684 195.577895,6.00189474 199.095158,6.00189474 C201.257053,6.00189474 202.759579,7.02757895 203.730316,8.42021053 L202.465895,9.13452632 C201.770526,8.09052632 200.487789,7.35726316 199.095158,7.35726316 C196.420421,7.35726316 194.386737,9.39094737 194.386737,12.3227368 C194.386737,15.2172632 196.420421,17.2869474 199.095158,17.2869474 C200.487789,17.2869474 201.770526,16.536 202.465895,15.5103158 L203.748632,16.2063158 C202.722947,17.6172632 201.257053,18.6429474 199.095158,18.6429474 C195.577895,18.6429474 192.811579,16.0781053 192.811579,12.3227368 Z M209.663368,18.4231579 L209.663368,7.55936842 L205.798105,7.55936842 L205.798105,6.20336842 L215.067158,6.20336842 L215.067158,7.55936842 L211.183579,7.55936842 L211.183579,18.4231579 L209.663368,18.4231579 Z M217.812632,18.4231579 L217.812632,6.20336842 L225.818526,6.20336842 L225.818526,7.55936842 L219.332842,7.55936842 L219.332842,11.4978947 L225.690316,11.4978947 L225.690316,12.8538947 L219.332842,12.8538947 L219.332842,17.0671579 L225.818526,17.0671579 L225.818526,18.4231579 L217.812632,18.4231579 Z M229.333263,18.4231579 L229.333263,6.20336842 L233.510526,6.20336842 C237.320842,6.20336842 239.776421,8.85978947 239.776421,12.3227368 C239.776421,15.8033684 237.320842,18.4231579 233.510526,18.4231579 L229.333263,18.4231579 Z M238.2,12.3227368 C238.2,9.684 236.533263,7.55936842 233.510526,7.55936842 L230.854105,7.55936842 L230.854105,17.0671579 L233.510526,17.0671579 C236.478316,17.0671579 238.2,14.9418947 238.2,12.3227368 Z" id="Combined-Shape" fill="#193A54"></path>
                </g>
            </g>
        </g>
    </g>
</svg>
