<svg width="24px" height="24px" viewBox="0 0 24 24" version="1.1" xmlns="http://www.w3.org/2000/svg" xmlns:xlink="http://www.w3.org/1999/xlink">
    <!-- Generator: Sketch 49 (51002) - http://www.bohemiancoding.com/sketch -->
    <desc>Created with Sketch.</desc>
    <defs></defs>
    <g id="Symbols" stroke="none" stroke-width="1" fill="none" fill-rule="evenodd">
        <g id="Footer/Desktop" transform="translate(-1059.000000, -86.000000)" fill="#CCCCCC">
            <g id="Footer" transform="translate(0.000000, 48.000000)">
                <g id="Connect" transform="translate(1059.000000, 0.000000)">
                    <path d="M16.559556,62 L16.559556,52.705988 L19.679316,52.705988 L20.146356,49.083908 L16.559556,49.083908 L16.559556,46.771388 C16.559556,45.722588 16.850796,45.007988 18.354636,45.007988 L20.272716,45.007148 L20.272716,41.767628 C19.940796,41.723468 18.802356,41.624828 17.477796,41.624828 C14.712396,41.624828 12.819156,43.312748 12.819156,46.412708 L12.819156,49.083908 L9.691476,49.083908 L9.691476,52.705988 L12.819156,52.705988 L12.819156,62 L1.34399998,62 C0.601729286,62 1.42316957e-15,61.3982707 1.33226763e-15,60.656 L2.22044605e-16,39.344 C1.31142662e-16,38.6017293 0.601729286,38 1.34399998,38 L22.656,38 C23.3982707,38 24,38.6017293 24,39.344 L24,60.656 C24,61.3982707 23.3982707,62 22.656,62 L16.559556,62 Z" id="Combined-Shape"></path>
                </g>
            </g>
        </g>
    </g>
</svg>
