<svg width="24px" height="24px" viewBox="0 0 24 24" version="1.1" xmlns="http://www.w3.org/2000/svg" xmlns:xlink="http://www.w3.org/1999/xlink">
    <!-- Generator: Sketch 49 (51002) - http://www.bohemiancoding.com/sketch -->
    <desc>Created with Sketch.</desc>
    <defs></defs>
    <g id="Symbols" stroke="none" stroke-width="1" fill="none" fill-rule="evenodd">
        <g id="Footer/Desktop" transform="translate(-1105.000000, -86.000000)" fill="#CCCCCC">
            <g id="Footer" transform="translate(0.000000, 48.000000)">
                <g id="Connect" transform="translate(1059.000000, 0.000000)">
                    <path d="M66.4512,58.4505333 L62.8918667,58.4505333 L62.8918667,52.8812 C62.8918667,51.5525333 62.8692,49.8438667 61.0425333,49.8438667 C59.1898667,49.8438667 58.9078667,51.2918667 58.9078667,52.7858667 L58.9078667,58.4505333 L55.3525333,58.4505333 L55.3525333,46.9972 L58.7645333,46.9972 L58.7645333,48.5632 L58.8132,48.5632 C59.2878667,47.6625333 60.4492,46.7132 62.1812,46.7132 C65.7852,46.7132 66.4512,49.0845333 66.4512,52.1692 L66.4512,58.4505333 Z M51.3385333,45.4325333 C50.1952,45.4325333 49.2732,44.5078667 49.2732,43.3678667 C49.2732,42.2285333 50.1952,41.3038667 51.3385333,41.3038667 C52.4772,41.3038667 53.4018667,42.2285333 53.4018667,43.3678667 C53.4018667,44.5078667 52.4772,45.4325333 51.3385333,45.4325333 Z M49.5558667,58.4505333 L53.1192,58.4505333 L53.1192,46.9972 L49.5558667,46.9972 L49.5558667,58.4505333 Z M68.2238667,37.9998667 L47.7705333,37.9998667 C46.7938667,37.9998667 45.9998667,38.7745333 45.9998667,39.7305333 L45.9998667,60.2685333 C45.9998667,61.2238667 46.7938667,61.9998667 47.7705333,61.9998667 L68.2238667,61.9998667 C69.2025333,61.9998667 69.9992,61.2238667 69.9992,60.2685333 L69.9992,39.7305333 C69.9992,38.7745333 69.2025333,37.9998667 68.2238667,37.9998667 Z" id="Fill-1"></path>
                </g>
            </g>
        </g>
    </g>
</svg>
