<svg width="24px" height="20px" viewBox="0 0 24 20" version="1.1" xmlns="http://www.w3.org/2000/svg" xmlns:xlink="http://www.w3.org/1999/xlink">
    <!-- Generator: Sketch 49 (51002) - http://www.bohemiancoding.com/sketch -->
    <desc>Created with Sketch.</desc>
    <defs></defs>
    <g id="Symbols" stroke="none" stroke-width="1" fill="none" fill-rule="evenodd">
        <g id="Footer/Desktop" transform="translate(-1152.000000, -88.000000)" fill="#CCCCCC">
            <g id="Footer" transform="translate(0.000000, 48.000000)">
                <g id="Connect" transform="translate(1059.000000, 0.000000)">
                    <path d="M114.302443,43.1178212 C114.302443,43.1178212 116.227479,42.9611379 117,42.3672672 C117,42.3672672 116.814846,43.0509227 114.498421,45.2139735 C114.498421,45.2139735 115.278349,56.8854108 103.394284,59.7438537 C103.394284,59.7438537 97.3673653,61.0700867 93,57.6870189 C93,57.6870189 97.5718898,58.5250103 100.144112,55.5943875 C100.144112,55.5943875 96.8261448,55.6290104 95.7767465,52.1420739 C95.7767465,52.1420739 97.0295298,52.4208176 97.7741354,52.0722413 C97.7741354,52.0722413 94.0157856,51.2694595 94.0835806,47.0495739 C94.0835806,47.0495739 95.0993662,47.8171459 96.0131744,47.6774807 C96.0131744,47.6774807 92.6279821,44.712235 94.7267786,41.0163874 C94.7267786,41.0163874 99.2627768,46.5413802 104.884635,46.2133429 C104.786645,45.8178203 104.733662,45.4035192 104.733662,44.9751342 C104.733662,42.2281888 106.896836,40 109.564768,40 C110.912693,40 112.131863,40.5692239 113.008641,41.4864373 C113.651269,41.497587 114.972986,41.3796344 116.292995,40.4060855 C116.292995,40.4066723 116.368766,41.4705929 114.302443,43.1178212 L114.302443,43.1178212 Z" id="Shape"></path>
                </g>
            </g>
        </g>
    </g>
</svg>
